<mxfile host="65bd71144e">
    <diagram id="ly_OZ7x1TZtxGnOOAobW" name="Page-1">
        <mxGraphModel dx="1332" dy="1594" grid="1" gridSize="10" guides="1" tooltips="1" connect="1" arrows="1" fold="1" page="1" pageScale="1" pageWidth="850" pageHeight="1100" math="0" shadow="0">
            <root>
                <mxCell id="0"/>
                <mxCell id="1" parent="0"/>
                <mxCell id="2" value="&lt;h1 style=&quot;margin-top: 0px;&quot;&gt;User item should Includes&lt;/h1&gt;&lt;p&gt;1- infinite scroll&lt;/p&gt;&lt;p&gt;2-&lt;font style=&quot;color: light-dark(rgb(0, 0, 0), rgb(255, 251, 249));&quot;&gt;&amp;nbsp;&lt;span style=&quot;background-color: transparent; color: rgb(192, 192, 192);&quot;&gt;image User&amp;nbsp; , Contry flag&lt;/span&gt;&lt;/font&gt;&lt;span style=&quot;color: rgb(192, 192, 192); background-color: transparent;&quot;&gt;&amp;nbsp; ,&amp;nbsp;&lt;/span&gt;&lt;span style=&quot;background-color: transparent;&quot;&gt;first name , last name , username , gender , phone , email , full address&lt;/span&gt;&lt;/p&gt;&lt;p&gt;&lt;span style=&quot;background-color: transparent;&quot;&gt;3- search input base on nationality , filter by gender&lt;/span&gt;&lt;/p&gt;&lt;p&gt;&lt;span style=&quot;background-color: transparent;&quot;&gt;4- export list of sorted user to excel currnet page redered and generated by api&lt;/span&gt;&lt;/p&gt;&lt;p&gt;&lt;span style=&quot;background-color: transparent;&quot;&gt;5- Add Favorite User Toggle&lt;/span&gt;&lt;/p&gt;" style="text;html=1;whiteSpace=wrap;overflow=hidden;rounded=0;" vertex="1" parent="1">
                    <mxGeometry x="10" y="70" width="720" height="190" as="geometry"/>
                </mxCell>
            </root>
        </mxGraphModel>
    </diagram>
</mxfile>